<svg id="Layer_1" data-name="Layer 1" xmlns="http://www.w3.org/2000/svg" viewBox="0 0 1920 1080"><defs><style>.cls-1,.cls-10{fill:#f0f0f2;}.cls-10,.cls-2,.cls-9{font-size:139.75px;font-family:Montserrat-BlackItalic, Montserrat;font-weight:800;font-style:italic;}.cls-2,.cls-7{fill:#04c4d9;}.cls-3{letter-spacing:-0.02em;}.cls-4{letter-spacing:-0.05em;}.cls-5{font-size:88px;}.cls-6{letter-spacing:-0.01em;}.cls-8{fill:#344849;}.cls-11{fill:#f24405;}.cls-12{fill:#bf2604;}.cls-13{fill:#04b2d9;}</style></defs><title>FullBoard</title><rect class="cls-1" width="960" height="540"/><text class="cls-2" transform="translate(415.89 279.01)"><tspan class="cls-3">V</tspan><tspan x="107.75" y="0">E</tspan><tspan class="cls-4" x="201.8" y="0">K</tspan><tspan x="301.02" y="0">TR</tspan><tspan class="cls-5"><tspan x="0" y="77">MEDI</tspan><tspan class="cls-6" x="246.66" y="77">C</tspan><tspan x="311.25" y="77">ARE</tspan></tspan></text><path class="cls-7" d="M343.43,139.17c-36.08-19.92-83.71-13.66-113.4,14.31-29.77-28-77.43-34.23-113.45-14.31a97.15,97.15,0,0,0-50.35,85.11,90.51,90.51,0,0,0,4.61,29A93.22,93.22,0,0,0,76,268.76H44.53a10.73,10.73,0,1,0,0,21.46H169.68a10.68,10.68,0,0,0,9.85-6.45L191,257.45l14.48,61a10.74,10.74,0,0,0,8.76,8.11,11.22,11.22,0,0,0,1.68.13,10.71,10.71,0,0,0,9.13-5.16l30.85-50.69h24.86L272,286.9a4.05,4.05,0,0,0,5.27,5.61l62.64-28.87a4.06,4.06,0,0,0,0-7.37l-62.64-28.88A4.06,4.06,0,0,0,272,233l8.87,16.34h-31a10.7,10.7,0,0,0-9.16,5.14L220.2,288.08l-15.84-66.95a10.7,10.7,0,0,0-20.25-1.8L162.6,268.77H100c-3.88-7.19-6.93-14.12-8.52-21.2a74.51,74.51,0,0,1-3.82-23.28A75.72,75.72,0,0,1,126.9,158c30.84-17.06,72.14-9.22,94.8,18,4.14,4.92,12.48,4.92,16.54,0,22.59-27.23,63.93-35.13,94.8-18a75.75,75.75,0,0,1,39.2,66.33,76.76,76.76,0,0,1-4.07,24.31C357.42,297.22,269.75,363.09,230,389a738.09,738.09,0,0,1-68.42-51.33A10.74,10.74,0,0,0,147.68,354a735.76,735.76,0,0,0,76.54,56.81,10.44,10.44,0,0,0,5.76,1.66,10.84,10.84,0,0,0,5.74-1.66c5.63-3.56,137.86-87.26,153.15-156.45a94.47,94.47,0,0,0,4.93-30A97.23,97.23,0,0,0,343.43,139.17Z" transform="translate(0 0)"/><rect class="cls-8" x="960" y="540" width="960" height="540"/><text class="cls-2" transform="translate(1375.89 835.77)"><tspan class="cls-3">V</tspan><tspan x="107.75" y="0">E</tspan><tspan class="cls-4" x="201.8" y="0">K</tspan><tspan x="301.02" y="0">TR</tspan><tspan class="cls-5"><tspan x="0" y="77">MEDI</tspan><tspan class="cls-6" x="246.66" y="77">C</tspan><tspan x="311.25" y="77">ARE</tspan></tspan></text><path class="cls-7" d="M1303.43,695.93c-36.08-19.93-83.71-13.67-113.4,14.31-29.77-28-77.43-34.24-113.45-14.31A97.15,97.15,0,0,0,1026.23,781a90.56,90.56,0,0,0,4.61,29,93.84,93.84,0,0,0,5.16,15.5h-31.47a10.73,10.73,0,0,0,0,21.46h125.15a10.7,10.7,0,0,0,9.85-6.45L1151,814.21l14.48,61a10.74,10.74,0,0,0,8.76,8.11,11.22,11.22,0,0,0,1.68.13,10.69,10.69,0,0,0,9.13-5.17l30.85-50.68h24.86L1232,843.65a4.06,4.06,0,0,0,5.27,5.62l62.64-28.88a4,4,0,0,0,0-7.36l-62.64-28.88a4.05,4.05,0,0,0-5.27,5.61l8.87,16.35h-31a10.7,10.7,0,0,0-9.16,5.14l-20.48,33.59-15.84-67a10.7,10.7,0,0,0-20.25-1.8l-21.51,49.43H1060c-3.88-7.18-6.93-14.11-8.52-21.2a74.51,74.51,0,0,1-3.82-23.28,75.72,75.72,0,0,1,39.27-66.31c30.84-17.06,72.14-9.22,94.8,18,4.14,4.92,12.48,4.92,16.54,0,22.59-27.23,63.93-35.13,94.8-18a75.75,75.75,0,0,1,39.2,66.33,76.8,76.8,0,0,1-4.07,24.31C1317.42,854,1229.75,919.85,1190,945.74a738.09,738.09,0,0,1-68.42-51.33,10.74,10.74,0,0,0-13.94,16.34,733.13,733.13,0,0,0,76.54,56.8,10.37,10.37,0,0,0,5.76,1.67,10.76,10.76,0,0,0,5.74-1.67c5.63-3.56,137.86-87.26,153.15-156.44a94.49,94.49,0,0,0,4.93-30.05A97.23,97.23,0,0,0,1303.43,695.93Z" transform="translate(0 0)"/><text class="cls-9" transform="translate(1372.63 279.01)"><tspan class="cls-3">V</tspan><tspan x="107.75" y="0">E</tspan><tspan class="cls-4" x="201.8" y="0">K</tspan><tspan x="301.02" y="0">TR</tspan><tspan class="cls-5"><tspan x="0" y="77">MEDI</tspan><tspan class="cls-6" x="246.66" y="77">C</tspan><tspan x="311.25" y="77">ARE</tspan></tspan></text><path d="M1300.17,139.17c-36.08-19.92-83.71-13.66-113.4,14.31-29.77-28-77.43-34.23-113.45-14.31A97.15,97.15,0,0,0,1023,224.28a90.51,90.51,0,0,0,4.61,29,92.31,92.31,0,0,0,5.16,15.5h-31.47a10.73,10.73,0,0,0,0,21.46h125.15a10.68,10.68,0,0,0,9.85-6.45l11.43-26.32,14.48,61a10.74,10.74,0,0,0,8.76,8.11,11.22,11.22,0,0,0,1.68.13,10.71,10.71,0,0,0,9.13-5.16l30.85-50.69h24.86l-8.72,16.08a4.05,4.05,0,0,0,5.27,5.61l62.64-28.87a4.06,4.06,0,0,0,0-7.37L1234,227.39a4.06,4.06,0,0,0-5.27,5.62l8.87,16.34h-31a10.7,10.7,0,0,0-9.16,5.14l-20.48,33.59-15.84-66.95a10.7,10.7,0,0,0-20.25-1.8l-21.51,49.44h-62.63c-3.88-7.19-6.93-14.12-8.52-21.2a74.51,74.51,0,0,1-3.82-23.28A75.72,75.72,0,0,1,1083.64,158c30.84-17.06,72.14-9.22,94.8,18,4.14,4.92,12.48,4.92,16.54,0,22.59-27.23,63.93-35.13,94.8-18a75.44,75.44,0,0,1,35.12,90.64c-10.74,48.58-98.41,114.45-138.12,140.34a739.24,739.24,0,0,1-68.43-51.33A10.74,10.74,0,0,0,1104.42,354,735.76,735.76,0,0,0,1181,410.8a10.44,10.44,0,0,0,5.76,1.66,10.84,10.84,0,0,0,5.74-1.66c5.63-3.56,137.86-87.26,153.15-156.45a94.47,94.47,0,0,0,4.93-30A97.23,97.23,0,0,0,1300.17,139.17Z" transform="translate(0 0)"/><rect class="cls-7" y="540" width="960" height="540"/><text class="cls-10" transform="translate(412.63 835.77)"><tspan class="cls-3">V</tspan><tspan x="107.75" y="0">E</tspan><tspan class="cls-4" x="201.8" y="0">K</tspan><tspan x="301.02" y="0">TR</tspan><tspan class="cls-5"><tspan x="0" y="77">MEDI</tspan><tspan class="cls-6" x="246.66" y="77">C</tspan><tspan x="311.25" y="77">ARE</tspan></tspan></text><path class="cls-1" d="M340.17,695.93c-36.08-19.93-83.71-13.67-113.4,14.31-29.77-28-77.43-34.24-113.45-14.31A97.15,97.15,0,0,0,63,781a90.56,90.56,0,0,0,4.61,29,92.91,92.91,0,0,0,5.16,15.5H41.27a10.73,10.73,0,1,0,0,21.46H166.42a10.7,10.7,0,0,0,9.85-6.45l11.43-26.32,14.48,61a10.74,10.74,0,0,0,8.76,8.11,11.22,11.22,0,0,0,1.68.13,10.69,10.69,0,0,0,9.13-5.17l30.85-50.68h24.86l-8.72,16.07a4.06,4.06,0,0,0,5.27,5.62l62.64-28.88a4,4,0,0,0,0-7.36L274,784.15a4.05,4.05,0,0,0-5.27,5.61l8.87,16.35h-31a10.7,10.7,0,0,0-9.16,5.14l-20.48,33.59-15.84-67a10.7,10.7,0,0,0-20.25-1.8l-21.51,49.43H96.71c-3.88-7.18-6.93-14.11-8.52-21.2A74.51,74.51,0,0,1,84.37,781a75.72,75.72,0,0,1,39.27-66.31c30.84-17.06,72.14-9.22,94.8,18,4.14,4.92,12.48,4.92,16.54,0,22.59-27.23,63.93-35.13,94.8-18A75.75,75.75,0,0,1,369,781.09a76.54,76.54,0,0,1-4.08,24.31C354.16,854,266.49,919.85,226.78,945.74a739.24,739.24,0,0,1-68.43-51.33,10.74,10.74,0,0,0-13.93,16.34A733.13,733.13,0,0,0,221,967.55a10.37,10.37,0,0,0,5.76,1.67,10.76,10.76,0,0,0,5.74-1.67c5.63-3.56,137.86-87.26,153.15-156.44a94.49,94.49,0,0,0,4.93-30.05A97.23,97.23,0,0,0,340.17,695.93Z" transform="translate(0 0)"/><rect class="cls-1" x="68.1" y="1030.2" width="297.07" height="23.48" rx="11.74"/><rect class="cls-11" x="1256.95" y="1030.2" width="297.07" height="23.48" rx="11.74"/><rect class="cls-7" x="959.89" y="1030.2" width="297.07" height="23.48" rx="11.74"/><rect class="cls-8" x="365.4" y="1030.2" width="297.07" height="23.48" rx="11.74"/><rect class="cls-12" x="1554.48" y="1030.2" width="297.07" height="23.48" rx="11.74"/><rect class="cls-13" x="662.53" y="1030.2" width="297.07" height="23.48" rx="11.74"/></svg>