<svg xmlns="http://www.w3.org/2000/svg" viewBox="0 0 892.4 284.92"><defs><style>.cls-1{font-size:139.75px;font-family:Montserrat-BlackItalic, Montserrat;font-weight:800;font-style:italic;}.cls-1,.cls-6{fill:#f0f0f2;}.cls-2{letter-spacing:-0.02em;}.cls-3{letter-spacing:-0.05em;}.cls-4{font-size:88px;}.cls-5{letter-spacing:-0.01em;}</style></defs><title>VektrWhiteAsset 3</title><g id="Layer_2" data-name="Layer 2"><g id="Layer_1-2" data-name="Layer 1"><text class="cls-1" transform="translate(382.09 151.47)"><tspan class="cls-2">V</tspan><tspan x="107.75" y="0">E</tspan><tspan class="cls-3" x="201.8" y="0">K</tspan><tspan x="301.02" y="0">TR</tspan><tspan class="cls-4"><tspan x="0" y="77">MEDI</tspan><tspan class="cls-5" x="246.66" y="77">C</tspan><tspan x="311.25" y="77">ARE</tspan></tspan></text><path class="cls-6" d="M309.63,11.63C273.55-8.3,225.92-2,196.23,25.94,166.46-2,118.8-8.3,82.78,11.63A97.15,97.15,0,0,0,32.43,96.74a90.56,90.56,0,0,0,4.61,29,93.84,93.84,0,0,0,5.16,15.5H10.73a10.73,10.73,0,0,0,0,21.46H135.88a10.68,10.68,0,0,0,9.85-6.45l11.43-26.32,14.48,61A10.74,10.74,0,0,0,180.4,199a11.22,11.22,0,0,0,1.68.13,10.71,10.71,0,0,0,9.13-5.16l30.85-50.69h24.86l-8.72,16.08a4.05,4.05,0,0,0,5.27,5.61l62.64-28.88a4,4,0,0,0,0-7.36L243.47,99.85a4.06,4.06,0,0,0-5.27,5.62l8.87,16.34H216a10.7,10.7,0,0,0-9.16,5.14L186.4,160.54,170.56,93.59a10.7,10.7,0,0,0-20.25-1.8L128.8,141.23H66.17c-3.88-7.19-6.93-14.12-8.52-21.2a74.6,74.6,0,0,1-3.82-23.28A75.72,75.72,0,0,1,93.1,30.43c30.84-17.06,72.14-9.22,94.8,18,4.14,4.92,12.48,4.92,16.54,0,22.59-27.23,63.93-35.13,94.8-18a75.75,75.75,0,0,1,39.2,66.33,76.76,76.76,0,0,1-4.07,24.31C323.62,169.68,236,235.55,196.24,261.44a739.24,739.24,0,0,1-68.43-51.33,10.74,10.74,0,0,0-13.93,16.34,735.76,735.76,0,0,0,76.54,56.81,10.44,10.44,0,0,0,5.76,1.66,10.84,10.84,0,0,0,5.74-1.66c5.63-3.57,137.86-87.26,153.15-156.45a94.49,94.49,0,0,0,4.93-30A97.23,97.23,0,0,0,309.63,11.63Z"/></g></g></svg>